<?xml version="1.0" encoding="utf-8"?>
<!-- Generator: Adobe Illustrator 21.1.0, SVG Export Plug-In . SVG Version: 6.00 Build 0)  -->
<svg version="1.1" id="behance" class="mainIcon" xmlns="http://www.w3.org/2000/svg" xmlns:xlink="http://www.w3.org/1999/xlink" x="0px" y="0px"
	 viewBox="0 0 200 200" style="enable-background:new 0 0 200 200;" xml:space="preserve">
<style type="text/css">
	.st0{font-family:'Arial-BoldMT';}
	.st1{font-size:30px;}
	.st2{fill:none;stroke:#000000;stroke-width:2;stroke-miterlimit:10;}
</style>
<path id="icon_rectangle" d="M112.5,78.6c5,0,9,4,9,9v25c0,5-4,9-9,9h-25c-5,0-9-4-9-9v-25c0-5,4-9,9-9H112.5 M112.5,75.6h-25
	c-6.6,0-12,5.4-12,12v25c0,6.6,5.4,12,12,12h25c6.6,0,12-5.4,12-12v-25C124.5,81,119.1,75.6,112.5,75.6z"/>
<text transform="matrix(1 0 0 1 80.83 111.625)" class="st0 st1">Be</text>
<line id="small_tab" class="st2" x1="106.5" y1="93.6" x2="114.5" y2="93.6"/>
</svg>
