<?xml version="1.0" encoding="utf-8"?>
<!-- Generator: Adobe Illustrator 21.1.0, SVG Export Plug-In . SVG Version: 6.00 Build 0)  -->
<svg version="1.1" id="facebook" xmlns="http://www.w3.org/2000/svg" xmlns:xlink="http://www.w3.org/1999/xlink" x="0px" y="0px"
	 viewBox="0 0 200 200" style="enable-background:new 0 0 200 200;" xml:space="preserve">
<path id="icon_rectangle" d="M112.3,78.6c5,0,9,4,9,9v25c0,5-4,9-9,9h-25c-5,0-9-4-9-9v-25c0-5,4-9,9-9H112.3 M112.3,75.6h-25
	c-6.6,0-12,5.4-12,12v25c0,6.6,5.4,12,12,12h25c6.6,0,12-5.4,12-12l0,0v-25C124.3,81,118.9,75.6,112.3,75.6z"/>
<path id="F" d="M102.7,95.4h-2.6v5.4h2.6v20.5h5v-20.7l3.6,0.1v-5.3h-3.6l0.1-3.6c0,0,0.2-2.7,4-1.4c0.2-0.8,0.7-4.8,0.7-4.8
	s-6.8-3.2-9,2.6l-0.3,1.6l-0.2,1.3L102.7,95.4z"/>
</svg>
