<?xml version="1.0" encoding="utf-8"?>
<!-- Generator: Adobe Illustrator 21.1.0, SVG Export Plug-In . SVG Version: 6.00 Build 0)  -->
<svg version="1.1" id="google_plus" xmlns="http://www.w3.org/2000/svg" xmlns:xlink="http://www.w3.org/1999/xlink" x="0px"
	 y="0px" viewBox="0 0 200 200" style="enable-background:new 0 0 200 200;" xml:space="preserve">
<style type="text/css">
	.st0{font-family:'NuevaStd-Bold';}
	.st1{font-size:40px;}
	.st2{font-family:'Arial-BoldMT';}
	.st3{font-size:20px;}
</style>
<path id="icon_rectangle" d="M112.5,78.6c5,0,9,4,9,9v25c0,5-4,9-9,9h-25c-5,0-9-4-9-9v-25c0-5,4-9,9-9H112.5 M112.5,75.6h-25
	c-6.6,0-12,5.4-12,12v25c0,6.6,5.4,12,12,12h25c6.6,0,12-5.4,12-12v-25C124.5,81,119.1,75.6,112.5,75.6z"/>
<text transform="matrix(1 0 0 1 85.2117 105.405)" class="st0 st1">g</text>
<text transform="matrix(1 0 0 1 106.8717 95.625)" class="st2 st3">+</text>
</svg>
