<?xml version="1.0" encoding="utf-8"?>
<!-- Generator: Adobe Illustrator 21.1.0, SVG Export Plug-In . SVG Version: 6.00 Build 0)  -->
<svg version="1.1" id="instagram" class="mainIcon" xmlns="http://www.w3.org/2000/svg" xmlns:xlink="http://www.w3.org/1999/xlink" x="0px" y="0px"
	 viewBox="0 0 200 200" style="enable-background:new 0 0 200 200;" xml:space="preserve">
<path id="icon_rectangle" d="M112.3,78.7c5,0,9,4,9,9v25c0,5-4,9-9,9l0,0h-25c-5,0-9-4-9-9l0,0v-25c0-5,4-9,9-9H112.3 M112.3,75.7
	h-25c-6.6,0-12,5.4-12,12v25c0,6.6,5.4,12,12,12h25c6.6,0,12-5.4,12-12v-25C124.3,81.1,118.9,75.7,112.3,75.7z"/>
<path id="in_icon_rectangle" d="M107.3,83.7c5,0,9,4,9,9v15c0,5-4,9-9,9h-15c-5,0-9-4-9-9v-15c0-5,4-9,9-9H107.3 M107.3,80.7h-15
	c-6.6,0-12,5.4-12,12v15c0,6.6,5.4,12,12,12h15c6.6,0,12-5.4,12-12v-15C119.3,86.1,113.9,80.7,107.3,80.7z"/>
<path id="centre_circle" d="M99.3,92.7c3.9,0,7,3.1,7,7s-3.1,7-7,7s-7-3.1-7-7l0,0C92.3,95.8,95.4,92.7,99.3,92.7 M99.3,88.7
	c-6.1,0-11,4.9-11,11s4.9,11,11,11s11-4.9,11-11S105.4,88.7,99.3,88.7z"/>
<path id="little_dot" d="M108.3,86.7c-1.1,0-2,0.9-2,2s0.9,2,2,2s2-0.9,2-2S109.4,86.7,108.3,86.7z"/>
</svg>
