<?xml version="1.0" encoding="utf-8"?>
<!-- Generator: Adobe Illustrator 21.1.0, SVG Export Plug-In . SVG Version: 6.00 Build 0)  -->
<svg version="1.1" id="pinterest" xmlns="http://www.w3.org/2000/svg" xmlns:xlink="http://www.w3.org/1999/xlink" x="0px" y="0px"
	 viewBox="0 0 200 200" style="enable-background:new 0 0 200 200;" xml:space="preserve">
<style type="text/css">
	.st0{fill:#FFFFFF;}
</style>
<path id="icon_rectangle" d="M112.4,78.6c5,0,9,4,9,9v25c0,5-4,9-9,9h-25c-5,0-9-4-9-9v-25c0-5,4-9,9-9H112.4 M112.4,75.6h-25
	c-6.6,0-12,5.4-12,12v25c0,6.6,5.4,12,12,12h25c6.6,0,12-5.4,12-12v-25C124.4,81,119,75.6,112.4,75.6z"/>
<path id="circle" d="M99.6,118.1c-1,0-2-0.1-3-0.3c-6.1-1.3-14.7-7.5-14.7-17.2c0.1-4.6,2-9.1,5.3-12.3c3.4-3.3,7.9-5.2,12.7-5.2
	c9.8-0.1,17.8,7.7,18,17.5c-0.2,9.8-8.2,17.6-18,17.5H99.6z"/>
<path id="p" class="st0" d="M97.3,111.5c0.3-2.7,0.7-6.7,1.2-9.9c1-6.7,2.3-9.7,1.4-10.2c-0.6-0.3-1.6,0.5-2.9,1.6
	c-1.3,1.1-2.7,2.3-3,3.8c-0.5,3,3.3,5.6,2.9,6c-0.4,0.4-3.7-0.9-4.5-3.6c-0.9-3,1.8-6,2.6-6.8c1.2-1.4,2.8-2.3,4.6-2.8
	c0.8-0.2,4.8-1.3,7.3,1.3c1.1,1.2,1.7,2.8,1.6,4.4c0,2.9-0.6,5.8-1.8,8.4c-1.5,3.3-4.1,6.4-5.8,6.4c-0.3,0-0.6,0.1-0.8,0.2
	c-0.6,0.4-0.7,1.1-0.9,2.6c-0.4,1.5-0.6,3.1-0.6,4.7c0,0.3,0.1,0.5,0.2,0.8c0.3,0.7,0.7,0.9,0.7,1.1c-0.1,0.5-3.1,0.3-3.2-0.3
	c0-0.3,0-0.6,0.1-0.9v-0.2c0.1-0.3,0.2-0.8,0.5-3.5C97.1,113.4,97.2,112.3,97.3,111.5z"/>
<path id="p_1_" d="M102,91c0.5-0.2,1.1-0.3,1.6-0.1c0.6,0.2,1.1,0.6,1.4,1.2c1.4,2.2,1,5.9,0.8,7c-0.3,2-0.8,4-1.6,5.9
	c-1.2,2.7-2,3-2.4,3.1c-0.5,0-0.9-0.2-1.2-0.5c-0.9-0.8-0.7-2.3-0.2-5.2c0.4-2.5,0.6-3.7,0.9-5.4C101.4,95.5,101.7,93.5,102,91z"/>
</svg>
