<?xml version="1.0" encoding="utf-8"?>
<!-- Generator: Adobe Illustrator 21.1.0, SVG Export Plug-In . SVG Version: 6.00 Build 0)  -->
<svg version="1.1" id="twitter" xmlns="http://www.w3.org/2000/svg" xmlns:xlink="http://www.w3.org/1999/xlink" x="0px" y="0px"
	 viewBox="0 0 200 200" style="enable-background:new 0 0 200 200;" xml:space="preserve">
<path id="icon_rectangle" d="M112.5,78.9c5,0,9,4,9,9v25c0,5-4,9-9,9h-25c-5,0-9-4-9-9v-25c0-5,4-9,9-9L112.5,78.9 M112.5,75.9h-25
	c-6.6,0-12,5.4-12,12v25c0,6.6,5.4,12,12,12h25c6.6,0,12-5.4,12-12v-25C124.5,81.3,119.1,75.9,112.5,75.9z"/>
<path id="t" d="M96.2,88.6l6.9-4.1v9.2h4.7v5.4H103l0.1,12c0,0-0.4,3.1,1.4,3.3c1.9,0.2,3.2-0.7,3.2-0.7l0.6,5.3
	c0,0-6.9,3.3-10.9-1.1c-0.7-0.8-1.1-2.9-1.1-2.9l-0.2-2.7V88.6z"/>
</svg>
