<?xml version="1.0" encoding="utf-8"?>
<!-- Generator: Adobe Illustrator 21.1.0, SVG Export Plug-In . SVG Version: 6.00 Build 0)  -->
<svg version="1.1" id="yahoo" xmlns="http://www.w3.org/2000/svg" xmlns:xlink="http://www.w3.org/1999/xlink" x="0px" y="0px"
	 viewBox="0 0 200 200" style="enable-background:new 0 0 200 200;" xml:space="preserve">
<style type="text/css">
	.st0{font-family:'NuevaStd-Bold';}
	.st1{font-size:50px;}
	.st2{letter-spacing:-1;}
</style>
<path id="icon_rectangle" d="M112.3,79.2c5,0,9,4,9,9v25c0,5-4,9-9,9h-25c-5,0-9-4-9-9v-25c0-5,4-9,9-9H112.3 M112.3,76.2h-25
	c-6.6,0-12,5.4-12,12v25c0,6.6,5.4,12,12,12h25c6.6,0,12-5.4,12-12v-25C124.3,81.6,118.9,76.2,112.3,76.2z"/>
<text transform="matrix(1 0 0 1 84.3125 117.66)" class="st0 st1 st2">Y</text>
</svg>
