<?xml version="1.0" encoding="utf-8"?>
<!-- Generator: Adobe Illustrator 21.1.0, SVG Export Plug-In . SVG Version: 6.00 Build 0)  -->
<svg version="1.1" id="youtube" xmlns="http://www.w3.org/2000/svg" xmlns:xlink="http://www.w3.org/1999/xlink" x="0px" y="0px"
	 viewBox="0 0 200 200" style="enable-background:new 0 0 200 200;" xml:space="preserve">
<style type="text/css">
	.st0{fill:#1A1A1A;}
</style>
<symbol  id="Arrow_1" viewBox="-14.3 -7.7 28.6 15.4">
	<polygon points="-14.3,7.7 14.3,0 -14.3,-7.7 	"/>
	<polygon class="st0" points="-14.3,7.7 14.3,0 -14.3,-7.7 	"/>
</symbol>
<path id="icon_rectangle" d="M125.1,69.8c10.6,0,19.2,8.6,19.2,19.2v22.6c0,10.6-8.6,19.2-19.2,19.2H74.6
	c-10.6,0-19.2-8.6-19.2-19.2V89.1c0-10.6,8.6-19.2,19.2-19.2L125.1,69.8 M125.1,66.8H74.6c-12.3,0-22.2,10-22.2,22.2v22.6
	c0,12.3,10,22.2,22.2,22.2h50.5c12.3,0,22.2-10,22.2-22.2V89.1C147.2,76.8,137.4,66.8,125.1,66.8z"/>
<use xlink:href="#Arrow_1"  width="28.6" height="15.4" id="youtube_1_" x="-14.3" y="-7.7" transform="matrix(0.7948 0 0 2.295 103.722 100.1322)" style="overflow:visible;"/>
</svg>
